<?xml version="1.0" encoding="UTF-8"?>
<!DOCTYPE svg PUBLIC "-//W3C//DTD SVG 1.1//EN" "http://www.w3.org/Graphics/SVG/1.1/DTD/svg11.dtd">
<!-- Creator: CorelDRAW 2020 (64-Bit) -->
<svg xmlns="http://www.w3.org/2000/svg" xml:space="preserve" width="31.9861mm" height="31.9861mm" version="1.1" shape-rendering="geometricPrecision" text-rendering="geometricPrecision" image-rendering="optimizeQuality" fill-rule="evenodd" clip-rule="evenodd"
viewBox="0 0 2760 2760"
 xmlns:xlink="http://www.w3.org/1999/xlink"
 xmlns:xodm="http://www.corel.com/coreldraw/odm/2003">
 <g id="Слой_x0020_1">
  <metadata id="CorelCorpID_0Corel-Layer"/>
  <path fill="#313461" d="M2530 2530l-2300 0 0 -2300 2300 0 0 2300zm-1763 -1552c-41,27 -80,54 -117,82l0 0 140 197c84,115 199,288 283,397l0 0c25,32 47,66 71,100l0 0c14,20 65,85 68,104l0 0c-20,6 -97,63 -117,78l0 0c-19,-31 -41,-57 -61,-89l0 0c-21,6 -49,30 -69,42l0 0c8,26 158,228 175,251l0 0c12,-9 50,-37 64,-42l0 0c-4,-30 -52,-72 -61,-100l0 0c29,-8 97,-70 122,-78l0 0c6,20 16,28 28,44l0 0c13,18 21,29 33,45l0 0c18,-6 54,-32 63,-47l0 0 -162 -231c-1,-1 -4,-5 -5,-6l0 0c-1,-1 -4,-5 -4,-7l0 0c-15,-30 -5,-122 -7,-154l0 0c-2,-29 -4,-58 -6,-87l0 0 409 -280c15,-11 24,-16 39,-27l0 0c102,-82 33,-184 -87,-102l0 0 -312 215c-154,100 -333,90 -424,-83l0 0c-46,-87 -23,-206 34,-273l0 0c11,-13 16,-16 24,-30l0 0c-23,3 -99,65 -121,79zm804 -562c-6,19 -62,51 -69,53l0 0c6,97 5,178 11,271l0 0 -298 202c-38,26 -168,103 -162,136l0 0c38,61 60,26 106,-5l0 0c38,-26 71,-49 109,-75l0 0c52,-36 176,-125 225,-148l0 0c216,-103 422,50 433,234l0 0c4,62 -22,147 -54,179l0 0c-38,38 -33,6 -47,72l0 0c-6,29 -23,70 -21,99l0 0c-18,-10 -48,-58 -60,-78l0 0 -69 42c6,18 69,102 85,125l0 0 90 125c23,-14 40,-27 64,-42l0 0c-5,-34 -38,-52 -49,-84l0 0c18,3 130,14 144,12l0 0c14,-2 95,-53 101,-71l-227 -19 52 -201c8,-25 42,-42 71,-61l0 0c21,-14 68,-41 79,-60l0 0c-8,-23 -158,-225 -185,-263l0 0c-23,-32 -41,-59 -64,-91l0 0 -125 -174c-20,-27 -116,-161 -123,-182l-16 1zm-766 1585c-33,22 -110,68 -107,117l0 0c4,64 39,95 105,92l0 0c61,-4 132,-95 182,-98l0 0c81,-5 -132,125 -152,140l0 0c3,39 1,62 0,93 24,-3 117,-74 142,-91l0 0c56,-40 108,-58 103,-136l0 0c-3,-43 -47,-90 -88,-87l0 0c-87,5 -97,39 -176,89l0 0c-14,9 -14,15 -20,2l0 0c-6,-13 0,-12 29,-31l0 0 122 -84 -6 -92c-18,5 -111,72 -134,88zm576 -365l19 304c2,33 33,-1 67,-24l0 0c14,-9 14,-11 25,-20l0 0c-17,-30 -15,-159 -18,-206l0 0c14,3 36,15 53,22l0 0c20,8 34,17 55,20l0 0c-27,42 -86,30 -83,92l0 0c1,19 3,40 4,60l0 0c23,-3 49,-26 68,-39l0 0c23,-15 39,-27 62,-43l0 0 92 -63c19,-12 23,-8 27,-28l0 0c-35,-6 -259,-117 -292,-127l0 0c-9,-3 -17,-4 -24,-4l0 0c-39,0 -55,34 -53,55zm210 -176c14,22 28,40 44,62l0 0 132 184c22,-6 49,-30 69,-42 -13,-20 -26,-38 -41,-59l0 0c-15,-21 -29,-42 -44,-61l0 0 -85 -125c-25,4 -54,30 -75,43z"/>
  <path fill="#313461" d="M2760 0l-2760 0 0 2760 2760 0 0 -2760zm-115 2645l-2530 0 0 -2530 2530 0 0 2530z"/>
 </g>
</svg>
