<?xml version="1.0" encoding="UTF-8"?>
<!DOCTYPE svg PUBLIC "-//W3C//DTD SVG 1.1//EN" "http://www.w3.org/Graphics/SVG/1.1/DTD/svg11.dtd">
<!-- Creator: CorelDRAW 2020 (64-Bit) -->
<svg xmlns="http://www.w3.org/2000/svg" xml:space="preserve" width="20.714mm" height="7.1205mm" version="1.1" shape-rendering="geometricPrecision" text-rendering="geometricPrecision" image-rendering="optimizeQuality" fill-rule="evenodd" clip-rule="evenodd"
viewBox="0 0 702 241"
 xmlns:xlink="http://www.w3.org/1999/xlink"
 xmlns:xodm="http://www.corel.com/coreldraw/odm/2003">
 <g id="Слой_x0020_1">
  <metadata id="CorelCorpID_0Corel-Layer"/>
  <polygon fill="none" points="0,0 702,0 702,241 0,241 "/>
  <g id="_2333540621104">
   <path fill="#313461" d="M503 54c-1,11 0,21 0,33l0 0 2 98c9,3 25,1 35,2 0,-10 0,-20 0,-31l0 0c0,-11 0,-22 -1,-33l0 0 0 -66c-10,-5 -27,-2 -37,-3z"/>
   <path fill="#313461" d="M385 66l-68 113c-7,12 12,8 30,8l0 0c7,0 8,-1 14,-1l0 0c1,-15 33,-61 44,-78l0 0c4,5 9,14 13,21l0 0c5,8 8,14 15,21l0 0c-20,8 -38,-10 -52,12l0 0c-4,7 -9,15 -13,23l0 0c9,5 24,3 34,3l0 0c12,0 21,0 33,0l0 0 49 0c10,0 10,3 16,-3l0 0c-11,-11 -64,-106 -73,-117l0 0c-3,-3 -5,-5 -8,-7l0 0c-14,-10 -28,-1 -33,7z"/>
   <path fill="#313461" d="M89 55c-17,0 -56,-3 -67,16l0 0c-14,24 -9,44 15,59l0 0c23,14 71,-2 89,9l0 0c30,18 -78,12 -89,13l0 0c-9,14 -15,22 -23,33 9,5 60,2 73,2l0 0c30,0 53,6 70,-23l0 0c10,-16 5,-43 -10,-53l0 0c-32,-19 -44,-10 -85,-11l0 0c-7,0 -9,2 -8,-4l0 0c1,-6 3,-4 18,-4l0 0 64 0 21 -34c-8,-2 -57,-1 -70,-1z"/>
   <path fill="#313461" d="M634 55c-3,0 -6,3 -17,13l0 0c-9,9 -25,20 -32,30l0 0c-4,-8 -3,-33 -2,-43l0 0 -35 -2c-2,8 0,53 0,66l0 0 1 67c12,1 21,0 33,1l0 0c7,-13 -1,-28 3,-42l0 0c6,6 43,37 49,40l0 0c6,3 47,5 53,-1l-77 -63 71 -64 -48 -3z"/>
   <path fill="#313461" d="M271 54c0,14 2,43 -1,50l0 0c-9,-3 -50,-1 -61,-1l0 0c1,-16 -1,-30 0,-47 -9,-3 -25,-1 -35,-2l0 0c-4,11 1,121 1,133l0 0c7,0 27,-1 33,1l0 0c6,-12 -1,-38 3,-51l0 0c12,4 52,-1 63,2l0 0c-3,9 -1,14 -1,23l0 0c0,9 0,16 1,24l0 0c8,2 27,2 34,-1l0 0 -1 -122c0,-1 0,-3 0,-3l0 0c0,0 0,-3 0,-3l0 0c0,-1 0,-1 0,-2l0 0 -36 1zm-62 2l62 -2z"/>
  </g>
 </g>
</svg>
