<?xml version="1.0" encoding="UTF-8"?>
<!DOCTYPE svg PUBLIC "-//W3C//DTD SVG 1.1//EN" "http://www.w3.org/Graphics/SVG/1.1/DTD/svg11.dtd">
<!-- Creator: CorelDRAW 2020 (64-Bit) -->
<svg xmlns="http://www.w3.org/2000/svg" xml:space="preserve" width="72.8134mm" height="72.8134mm" version="1.1" shape-rendering="geometricPrecision" text-rendering="geometricPrecision" image-rendering="optimizeQuality" fill-rule="evenodd" clip-rule="evenodd"
viewBox="0 0 10641 10641"
 xmlns:xlink="http://www.w3.org/1999/xlink"
 xmlns:xodm="http://www.corel.com/coreldraw/odm/2003">
 <g id="Слой_x0020_1">
  <metadata id="CorelCorpID_0Corel-Layer"/>
  <rect fill="none" width="10641" height="10641"/>
  <g id="_2411234374624">
   <path fill="#313461" d="M3786 4861l2 1425 -1220 32 -2 3216 5509 0 -3 -3222 -1221 -8c-2,-395 31,-888 11,-1248 -69,-1241 -412,96 -339,-891 33,-452 479,-1479 556,-1985 71,-470 172,-246 -112,-391 -409,-209 -365,207 -623,1135 -194,695 -387,1368 -552,2040 22,14 60,0 71,30 53,138 132,-10 466,177l-1 1038 -591 104 569 2217 450 -98 -365 -1621 1184 -3 -2 2257 -4514 -3 2 -2251 1174 -3 -395 1609 387 107c57,-72 63,-65 129,-208l528 -1898 -577 -104 0 -1245 543 -1c-106,-582 -691,-2938 -933,-3314 -909,120 -132,612 173,2334 96,540 27,229 -42,358 -190,355 -160,-382 -262,414z"/>
   <path fill="#313461" d="M5059 1539l17 3305c68,195 -107,226 501,226l3 -3531c2,-561 92,-416 -522,-416l1 416z"/>
   <path fill="#313461" d="M5058 8729l417 -9c250,-559 81,-1693 80,-2378l-494 -35 -3 2422z"/>
  </g>
 </g>
</svg>
