<?xml version="1.0" encoding="UTF-8"?>
<!DOCTYPE svg PUBLIC "-//W3C//DTD SVG 1.1//EN" "http://www.w3.org/Graphics/SVG/1.1/DTD/svg11.dtd">
<!-- Creator: CorelDRAW 2020 (64-Bit) -->
<svg xmlns="http://www.w3.org/2000/svg" xml:space="preserve" width="72.8134mm" height="72.8134mm" version="1.1" shape-rendering="geometricPrecision" text-rendering="geometricPrecision" image-rendering="optimizeQuality" fill-rule="evenodd" clip-rule="evenodd"
viewBox="0 0 4949 4949"
 xmlns:xlink="http://www.w3.org/1999/xlink"
 xmlns:xodm="http://www.corel.com/coreldraw/odm/2003">
 <g id="Слой_x0020_1">
  <metadata id="CorelCorpID_0Corel-Layer"/>
  <rect fill="none" width="4949" height="4949"/>
  <g id="_2410809166640">
   <path fill="#313461" d="M3304 1693c-187,-26 -255,-57 -476,-9 -136,29 -272,95 -363,163 -186,140 -345,335 -400,660 -39,-119 -16,-161 -112,-339 -42,-77 -131,-208 -201,-254 11,-37 221,-288 238,-327l-368 68 124 -277 -486 183 76 -165 -389 200 40 -196c-47,42 -347,350 -371,365 -171,107 -272,178 -382,363 -98,164 -157,367 -137,599 19,209 111,410 214,529 124,143 241,239 430,309 281,105 637,69 886,-103 116,-80 106,-81 199,-174 82,-82 164,-238 201,-355 14,-45 24,-116 37,-152 8,19 16,83 23,111 141,560 749,892 1312,680 424,-160 686,-596 629,-1048 -14,-111 -50,-229 -100,-326 -17,-33 -39,-63 -52,-94 28,13 50,45 73,67 299,299 942,119 907,-342 -3,-41 -21,-76 -66,-71 -50,6 -68,112 -253,172 -194,64 -261,-79 -314,-216 -68,-176 -106,-247 -235,-332 -255,-170 -607,-21 -682,310z"/>
   <path fill="white" d="M976 1803c-429,54 -793,439 -733,936 52,425 439,788 933,731 427,-49 796,-440 736,-935 -52,-425 -442,-794 -935,-732z"/>
   <path fill="white" d="M2270 2321c-60,73 -78,320 -64,434 94,737 1047,1006 1506,399 121,-159 184,-366 165,-580 -4,-50 -26,-170 -45,-209 -11,-21 -12,-15 -43,-14 -250,2 -523,-98 -742,-199 -73,-34 -28,-32 -157,38 -203,110 -384,136 -620,132z"/>
   <path fill="white" d="M3420 1701c24,9 49,29 80,44 94,44 178,64 271,119 120,71 178,164 270,244 91,78 251,121 403,88 131,-28 256,-115 283,-236 -42,17 -82,67 -196,94 -86,20 -178,5 -240,-36 -127,-86 -139,-208 -215,-364 -53,-107 -178,-242 -347,-228 -150,12 -289,145 -310,277z"/>
   <path fill="white" d="M2324 2212c225,14 528,-93 675,-233 26,-25 134,-127 138,-165 -250,-20 -509,57 -679,227 -37,37 -113,121 -134,171z"/>
   <path fill="white" d="M3095 2048c44,32 243,104 308,124 121,37 231,61 367,66 -39,-89 -145,-198 -209,-248 -69,-53 -196,-134 -307,-152 -19,53 -92,142 -136,184 -13,12 -14,12 -23,26z"/>
   <path fill="#313461" d="M1023 3108c-121,0 -199,-43 -264,-134 -44,-60 -39,-57 -25,-87 -10,-13 -20,-23 -32,-33 -16,15 -86,110 -100,133 8,17 12,20 31,33 18,-11 12,-11 23,-26 26,24 116,221 396,215 89,-2 169,-34 232,-73 34,-21 96,-78 121,-110l37 -46c4,5 7,9 11,13 13,12 0,3 15,12l28 -29c-11,-25 -81,-119 -101,-138 -23,16 -23,16 -32,46 -16,60 -53,108 -96,147 -53,48 -150,76 -245,76z"/>
   <path fill="#313461" d="M2696 2892l-29 -26 -11 10c-1,1 -2,2 -3,3l-88 119c8,18 15,21 28,35l29 -28c66,119 203,222 398,216 182,-6 281,-102 373,-217 1,-1 2,-2 3,-3l32 14 31 -34 -102 -131c-44,45 -20,32 -48,93 -16,35 -41,65 -63,85 -112,104 -334,124 -449,33 -43,-34 -76,-72 -102,-117 -21,-37 -5,-18 1,-54z"/>
   <path fill="#313461" d="M2664 2352c-154,52 -83,279 74,235 156,-44 81,-287 -74,-235z"/>
   <path fill="#313461" d="M699 2342c-154,55 -73,286 81,232 151,-53 73,-287 -81,-232z"/>
   <path fill="#313461" d="M1368 2354c-162,40 -96,280 63,237 149,-41 98,-277 -63,-237z"/>
   <path fill="#313461" d="M3337 2363c-154,30 -120,272 46,242 61,-11 111,-68 98,-144 -10,-60 -71,-112 -144,-99z"/>
  </g>
 </g>
</svg>
