<?xml version="1.0" encoding="UTF-8"?>
<!DOCTYPE svg PUBLIC "-//W3C//DTD SVG 1.1//EN" "http://www.w3.org/Graphics/SVG/1.1/DTD/svg11.dtd">
<!-- Creator: CorelDRAW 2020 (64-Bit) -->
<svg xmlns="http://www.w3.org/2000/svg" xml:space="preserve" width="72.8134mm" height="72.8134mm" version="1.1" shape-rendering="geometricPrecision" text-rendering="geometricPrecision" image-rendering="optimizeQuality" fill-rule="evenodd" clip-rule="evenodd"
viewBox="0 0 23943 23943"
 xmlns:xlink="http://www.w3.org/1999/xlink"
 xmlns:xodm="http://www.corel.com/coreldraw/odm/2003">
 <g id="Слой_x0020_1">
  <metadata id="CorelCorpID_0Corel-Layer"/>
  <rect fill="none" width="23943" height="23943"/>
  <path fill="#313461" d="M15318 3640c0,1799 -164,1785 680,1785 349,0 699,0 1048,0l-2160 2174c-259,-171 -525,-370 -824,-522 -404,-205 -485,-262 -945,-443 -1704,-670 -4050,-583 -5655,225 -856,432 -1423,862 -2065,1504 -2799,2799 -2790,7308 -14,10084l679 624c437,356 854,620 1363,875 1436,719 3320,884 4936,480 468,-117 876,-266 1277,-451 282,-130 846,-476 1078,-650 999,-752 1849,-1672 2397,-2815 924,-1925 878,-4225 18,-6156 -72,-162 -156,-286 -236,-444 -148,-292 -353,-569 -529,-831l2174 -2188c7,338 7,668 7,998 0,912 -163,736 1841,736 140,0 255,-115 255,-255l0 -4787c0,-210 -182,-283 -397,-283l-4560 0c-229,0 -368,108 -368,340zm-4777 4677c2768,0 5011,2244 5011,5011 0,2768 -2244,5011 -5011,5011 -2768,0 -5011,-2244 -5011,-5011 0,-2768 2244,-5011 5011,-5011z"/>
 </g>
</svg>
