<?xml version="1.0" encoding="UTF-8"?>
<!DOCTYPE svg PUBLIC "-//W3C//DTD SVG 1.1//EN" "http://www.w3.org/Graphics/SVG/1.1/DTD/svg11.dtd">
<!-- Creator: CorelDRAW 2020 (64-Bit) -->
<svg xmlns="http://www.w3.org/2000/svg" xml:space="preserve" width="72.8134mm" height="72.8134mm" version="1.1" shape-rendering="geometricPrecision" text-rendering="geometricPrecision" image-rendering="optimizeQuality" fill-rule="evenodd" clip-rule="evenodd"
viewBox="0 0 8445 8445"
 xmlns:xlink="http://www.w3.org/1999/xlink"
 xmlns:xodm="http://www.corel.com/coreldraw/odm/2003">
 <g id="Слой_x0020_1">
  <metadata id="CorelCorpID_0Corel-Layer"/>
  <rect fill="none" width="8445" height="8445"/>
  <g id="_2411218839504">
   <path fill="#313461" d="M3755 1826c-30,27 -275,138 -484,327 -42,38 -103,97 -142,126 -33,59 -270,275 -406,611 -318,784 -208,1507 279,2164 43,58 75,85 115,145 164,9 606,-199 642,-284 -148,-78 -328,-317 -408,-469 -281,-541 -215,-1245 176,-1665 63,-68 136,-162 232,-213 46,-90 460,-276 630,-285 957,-173 1756,578 1754,1447 -2,668 -406,1211 -1020,1425 -193,68 -534,94 -694,54l-28 -9c-24,10 -277,251 -459,356 -44,25 -143,73 -178,101 122,88 497,168 672,188 790,90 1481,-263 1945,-876 400,-528 488,-1275 279,-1904 -46,-138 -165,-392 -254,-511 -20,-27 -32,-37 -41,-71l701 -707 3 547 630 0 0 -1618 -1618 0 0 630 531 0 -701 707c-157,-108 -253,-174 -437,-249 -605,-245 -1137,-204 -1719,35z"/>
   <path fill="#313461" d="M3764 5655c35,-28 134,-76 178,-101 182,-104 436,-346 459,-356 33,-49 72,-90 110,-138 299,-377 459,-796 459,-1320 0,-501 -166,-960 -460,-1319 -21,-25 -32,-44 -56,-68 -29,-29 -44,-39 -65,-72 -170,9 -584,196 -630,285 89,47 160,134 226,207 402,451 466,1122 182,1671 -21,41 -51,87 -80,130 -25,38 -67,95 -96,126 -65,69 -149,169 -232,213 -36,85 -478,294 -642,284 -56,27 -275,30 -371,25 -859,-44 -1563,-919 -1327,-1846 16,-61 27,-94 47,-151 16,-47 40,-106 61,-149 16,-32 20,-31 37,-62 130,-232 326,-436 560,-564 55,-30 68,-40 131,-66 56,-24 90,-37 152,-58 293,-98 451,-73 721,-48 40,-29 100,-89 142,-126 209,-189 454,-300 484,-327 -21,-12 -64,-29 -92,-41l-328 -105c-459,-97 -809,-64 -1240,88l-385 195c-353,226 -622,556 -793,937 -31,69 -53,138 -79,217 -194,581 -81,1327 282,1828 254,350 562,603 965,764 100,40 337,118 462,118l0 581 -716 0 0 494c-2,203 -44,136 717,136l0 704 630 0 0 -704c124,0 581,18 667,0 63,-13 37,-154 37,-297 0,-111 0,-222 0,-334l-704 0 0 -581c162,0 438,-111 586,-173z"/>
  </g>
 </g>
</svg>
