<?xml version="1.0" encoding="UTF-8"?>
<!DOCTYPE svg PUBLIC "-//W3C//DTD SVG 1.1//EN" "http://www.w3.org/Graphics/SVG/1.1/DTD/svg11.dtd">
<!-- Creator: CorelDRAW 2020 (64-Bit) -->
<svg xmlns="http://www.w3.org/2000/svg" xml:space="preserve" width="72.8134mm" height="72.8134mm" version="1.1" shape-rendering="geometricPrecision" text-rendering="geometricPrecision" image-rendering="optimizeQuality" fill-rule="evenodd" clip-rule="evenodd"
viewBox="0 0 2686 2686"
 xmlns:xlink="http://www.w3.org/1999/xlink"
 xmlns:xodm="http://www.corel.com/coreldraw/odm/2003">
 <g id="Слой_x0020_1">
  <metadata id="CorelCorpID_0Corel-Layer"/>
  <rect fill="none" width="2686" height="2686"/>
  <path fill="#313461" d="M531 966c0,146 34,262 90,374 40,79 98,152 160,215l50 45c75,58 122,87 207,121 49,20 135,45 186,49l0 235 -254 0c-17,0 -32,16 -32,25l0 181c0,16 13,29 29,29l257 0 0 251c0,10 3,20 6,25 3,4 13,13 19,13l187 0c9,0 22,-13 22,-22l0 -267 267 0c13,0 25,-18 25,-38l0 -159c0,-25 -14,-38 -38,-38l-254 0 0 -235c13,0 25,-4 38,-6 50,-8 134,-34 178,-54 11,-5 19,-9 33,-15 37,-16 112,-67 143,-92 56,-45 96,-87 137,-142 113,-151 167,-306 167,-501 0,-122 -33,-249 -73,-331 -40,-81 -83,-145 -144,-209 -9,-10 -13,-17 -24,-27l-109 -91c-83,-58 -177,-105 -278,-125 -120,-24 -243,-30 -363,-1 -52,12 -110,29 -153,50 -121,60 -229,139 -311,248 -110,147 -169,300 -169,492zm812 -550c310,0 562,252 562,562 0,310 -252,562 -562,562 -310,0 -562,-252 -562,-562 0,-310 252,-562 562,-562z"/>
 </g>
</svg>
